<svg width="90" height="89" viewBox="0 0 90 89" fill="none" xmlns="http://www.w3.org/2000/svg">
<g filter="url(#filter0_f_1094_124)">
<g filter="url(#filter1_f_1094_124)">
<path d="M43.8587 23.6652C29.1871 23.836 18.152 33.3789 18.3619 44.2441C18.5718 55.1093 29.9706 64.3911 44.6422 64.2203C59.3138 64.0495 70.3489 54.5066 70.139 43.6414C69.9291 32.7762 58.5303 23.4944 43.8587 23.6652Z" stroke="#64D2FF" stroke-width="3.33333"/>
</g>
<g filter="url(#filter2_f_1094_124)">
<path d="M44.0245 20.7409C27.106 20.8402 14.2079 31.6536 14.3293 44.1183C14.4507 56.583 27.5581 67.2439 44.4765 67.1446C61.3949 67.0452 74.2931 56.2318 74.1717 43.7671C74.0503 31.3024 60.9429 20.6416 44.0245 20.7409Z" stroke="#64D2FF" stroke-width="3.33333"/>
</g>
<g filter="url(#filter3_f_1094_124)">
<path d="M54.6353 44.9775C56.6109 53.446 57.0585 61.3483 56.2374 67.2517C55.826 70.2093 55.1085 72.5751 54.1759 74.2459C53.2436 75.9162 52.1943 76.7339 51.1505 76.9774C50.1068 77.2209 48.8039 76.952 47.2288 75.8667C45.653 74.7809 43.9627 72.9769 42.2851 70.5067C38.9365 65.576 35.8411 58.2914 33.8655 49.8229C31.8899 41.3544 31.4423 33.4521 32.2634 27.5487C32.6747 24.5911 33.3923 22.2253 34.3249 20.5544C35.2571 18.8842 36.3065 18.0664 37.3503 17.8229C38.394 17.5794 39.6969 17.8484 41.272 18.9337C42.8477 20.0195 44.5381 21.8235 46.2157 24.2937C49.5643 29.2244 52.6597 36.509 54.6353 44.9775Z" stroke="#0A84FF" stroke-width="3.33333"/>
</g>
<g filter="url(#filter4_f_1094_124)">
<path d="M58.197 37.1966C63.2757 44.1383 66.1588 51.5768 66.781 57.9352C67.4075 64.3365 65.7384 69.3111 62.1835 71.9119C58.6286 74.5127 53.3821 74.5976 47.4708 72.0628C41.5991 69.5449 35.3824 64.5453 30.3038 57.6036C25.2252 50.6619 22.3421 43.2234 21.7198 36.8649C21.0933 30.4637 22.7624 25.4891 26.3173 22.8883C29.8723 20.2874 35.1187 20.2026 41.03 22.7374C46.9017 25.2553 53.1184 30.2549 58.197 37.1966Z" stroke="#0A84FF" stroke-width="3.33333"/>
</g>
</g>
<defs>
<filter id="filter0_f_1094_124" x="-0.777859" y="-1.11111" width="91.1111" height="91.1111" filterUnits="userSpaceOnUse" color-interpolation-filters="sRGB">
<feFlood flood-opacity="0" result="BackgroundImageFix"/>
<feBlend mode="normal" in="SourceGraphic" in2="BackgroundImageFix" result="shape"/>
<feGaussianBlur stdDeviation="0.555556" result="effect1_foregroundBlur_1094_124"/>
</filter>
<filter id="filter1_f_1094_124" x="6.98349" y="12.2881" width="74.534" height="63.3096" filterUnits="userSpaceOnUse" color-interpolation-filters="sRGB">
<feFlood flood-opacity="0" result="BackgroundImageFix"/>
<feBlend mode="normal" in="SourceGraphic" in2="BackgroundImageFix" result="shape"/>
<feGaussianBlur stdDeviation="4.85426" result="effect1_foregroundBlur_1094_124"/>
</filter>
<filter id="filter2_f_1094_124" x="8.77833" y="15.1901" width="70.9443" height="57.5051" filterUnits="userSpaceOnUse" color-interpolation-filters="sRGB">
<feFlood flood-opacity="0" result="BackgroundImageFix"/>
<feBlend mode="normal" in="SourceGraphic" in2="BackgroundImageFix" result="shape"/>
<feGaussianBlur stdDeviation="1.9417" result="effect1_foregroundBlur_1094_124"/>
</filter>
<filter id="filter3_f_1094_124" x="22.4397" y="8.30545" width="43.6213" height="78.1894" filterUnits="userSpaceOnUse" color-interpolation-filters="sRGB">
<feFlood flood-opacity="0" result="BackgroundImageFix"/>
<feBlend mode="normal" in="SourceGraphic" in2="BackgroundImageFix" result="shape"/>
<feGaussianBlur stdDeviation="3.88341" result="effect1_foregroundBlur_1094_124"/>
</filter>
<filter id="filter4_f_1094_124" x="16.0414" y="15.3361" width="56.4181" height="64.1281" filterUnits="userSpaceOnUse" color-interpolation-filters="sRGB">
<feFlood flood-opacity="0" result="BackgroundImageFix"/>
<feBlend mode="normal" in="SourceGraphic" in2="BackgroundImageFix" result="shape"/>
<feGaussianBlur stdDeviation="1.9417" result="effect1_foregroundBlur_1094_124"/>
</filter>
</defs>
</svg>
